# xmcd CD database file
#
# Track frame offsets:
#	150
#	47187
#	114019
#	159720
#	208493
#
# Disc length: 3042 seconds
#
# Revision: 0
# Processed by: cddbd v1.4PL0 Copyright (c) Steve Scherf et al.
# Submitted via: CDex 1.50
#
DISCID=420be005
DTITLE=John Coltrane - Living Space
DYEAR=1989
DGENRE=Jazz
TTITLE0=Living Space 
TTITLE1=Untitled Original 90314
TTITLE2=Dusk Dawn 
TTITLE3=Untitled Original 90320 
TTITLE4=Last Blues [#]
EXTD=YEAR: 1989
EXTT0=
EXTT1=
EXTT2=
EXTT3=
EXTT4=
PLAYORDER=
